<?xml version="1.0" encoding="utf-8"?>
<!-- Generator: Adobe Illustrator 16.0.0, SVG Export Plug-In . SVG Version: 6.00 Build 0)  -->
<!DOCTYPE svg PUBLIC "-//W3C//DTD SVG 1.1//EN" "http://www.w3.org/Graphics/SVG/1.1/DTD/svg11.dtd">
<svg version="1.1" id="Layer_1" xmlns="http://www.w3.org/2000/svg" xmlns:xlink="http://www.w3.org/1999/xlink" x="0px" y="0px"
	 width="74.182px" height="27.297px" viewBox="0 0 74.182 27.297" enable-background="new 0 0 74.182 27.297" xml:space="preserve">
<text transform="matrix(1 0 0 1 835.8313 -70.9033)" font-family="'ArialRoundedMTBold'" font-size="59.0588">my</text>
<text transform="matrix(1 0 0 1 835.8313 -70.9033)" fill="none" stroke="#000000" stroke-width="2" stroke-miterlimit="10" font-family="'ArialRoundedMTBold'" font-size="59.0588">my</text>
<text transform="matrix(1 0 0 1 776.4407 -0.0332)" font-family="'ArialRoundedMTBold'" font-size="59.0588">movies</text>
<text transform="matrix(1 0 0 1 776.4407 -0.0332)" fill="none" stroke="#000000" stroke-width="2" stroke-miterlimit="10" font-family="'ArialRoundedMTBold'" font-size="59.0588">movies</text>
<g>
	<path fill="#00FF00" d="M-633.384,45.75c-0.777,0-1.557,0-2.332,0c-2.625-0.604-3.667-2.504-4.29-4.924
		c-0.922-3.582-0.715-7.217-0.608-10.824c0.09-3.037-0.979-4.582-3.978-5.647c-31.524-11.22-50.432-33.331-56.353-66.291
		c-0.813-4.538-1.162-9.226-1.15-13.91c0.06-28.626-0.107-57.253,0.089-85.878c0.095-13.875,2.629-27.369,9.326-39.706
		c13.73-25.298,34.983-39.958,63.453-44.162c1.803-0.266,3.619-0.198,5.434-0.198c15.023-0.005,30.051-0.054,45.076,0.042
		c3.063,0.02,4.665-0.946,5.491-4.063c1.944-7.317,7.131-12.149,13.316-16.034c3.624-2.275,3.74-2.445,1.5-5.956
		c-15.326-24.021-31.016-47.805-46.479-71.736c-1.642-2.539-3.58-4.006-6.682-4.669c-7.366-1.575-11.409-9.001-9.162-16.206
		c1.393-4.458,4.39-7.161,9.108-7.788c1.813,0,3.627,0,5.439,0c7.985,1.941,11.422,7.457,9.479,15.556
		c-0.575,2.396,0.05,4.258,1.328,6.184c15.106,22.771,29.724,45.864,44.775,68.671c1.644,2.487,3.112,5.079,4.764,7.562
		c1.112,1.675,2.44,2.395,4.541,2.227c4.905-0.393,9.844-0.405,14.749-0.001c2.303,0.189,3.644-0.74,4.778-2.522
		c8.487-13.327,17.184-26.521,25.757-39.792c1.361-2.109,0.948-4.108,0.443-6.314c-1.805-7.876,3.829-15.532,11.68-16.026
		c7.244-0.456,12.833,3.912,13.824,10.805c1.06,7.35-2.96,13.556-10.317,14.949c-3.459,0.655-5.486,2.362-7.204,5.146
		c-6.939,11.241-14.451,22.117-21.429,33.335c-2.647,4.258-2.618,4.182,1.466,6.795c6.272,4.015,11.389,9.056,13.213,16.58
		c0.737,3.043,2.749,3.293,5.256,3.287c14.248-0.032,28.497-0.036,42.745-0.011c19.635,0.035,36.785,6.941,51.541,19.557
		c15.551,13.296,24.941,30.257,27.848,50.594c0.693,4.85,1.231,9.746,1.226,14.687c-0.043,28.108-0.011,56.216-0.025,84.324
		c-0.007,11.909-1.918,23.474-6.663,34.459c-9.789,22.668-26.571,37.884-49.687,46.219c-4.977,1.797-5.017,1.635-5.057,7.098
		c-0.021,3.229,0.175,6.463-0.644,9.662c-0.619,2.422-1.658,4.319-4.281,4.926c-0.777,0-1.555,0-2.332,0
		c-5.297-1.711-8.63-5.896-11.12-10.312c-3.33-5.903-7.777-7.346-14.271-7.313c-50.173,0.252-100.35,0.201-150.521,0.041
		c-4.958-0.014-8.13,1.461-10.789,5.701C-624.162,38.741-627.481,43.672-633.384,45.75z"/>
	<path fill="#FEFEFE" d="M-546.014-6.119c-34.192,0-68.388,0.006-102.583-0.002c-14.571-0.004-21.785-7.259-21.786-21.911
		c-0.008-47.216,0.229-94.431-0.158-141.642c-0.104-12.612,8.095-22.079,21.999-22.006c68.539,0.358,137.081,0.346,205.619-0.002
		c12.7-0.064,22.023,8.186,21.897,22.06c-0.431,47.21-0.427,94.43-0.004,141.641c0.125,13.979-9.306,22.198-21.948,22.024
		C-477.318-6.428-511.669-6.119-546.014-6.119z"/>
	<path fill="#FEFEFE" d="M-385.742-80.054c0.052,6.985-5.547,12.645-12.49,12.623c-6.851-0.02-12.401-5.555-12.452-12.415
		c-0.05-6.886,5.411-12.5,12.246-12.59C-391.405-92.529-385.794-87.056-385.742-80.054z"/>
	<path fill="#FEFEFE" d="M-385.739-128.584c0.023,6.909-5.418,12.457-12.292,12.529c-7.024,0.074-12.627-5.435-12.649-12.436
		c-0.021-6.992,5.603-12.611,12.557-12.545C-391.227-140.972-385.765-135.48-385.739-128.584z"/>
	<g>
		<path fill="#00FF00" stroke="#00FF00" stroke-width="2" stroke-miterlimit="10" d="M-560.768-132.627v11.763
			c0,1.859-0.421,3.252-1.265,4.18c-0.843,0.93-1.956,1.394-3.338,1.394c-1.339,0-2.425-0.464-3.256-1.394
			c-0.832-0.928-1.248-2.321-1.248-4.18v-14.096c0-2.225-0.076-3.953-0.229-5.185c-0.15-1.231-0.562-2.241-1.229-3.03
			c-0.669-0.788-1.729-1.183-3.176-1.183c-2.896,0-4.803,0.994-5.722,2.981c-0.918,1.988-1.377,4.84-1.377,8.556v11.957
			c0,1.837-0.416,3.225-1.248,4.165c-0.832,0.939-1.928,1.409-3.289,1.409c-1.34,0-2.436-0.47-3.289-1.409
			c-0.854-0.94-1.279-2.328-1.279-4.165v-25.309c0-1.663,0.384-2.927,1.149-3.791c0.768-0.864,1.777-1.297,3.03-1.297
			c1.209,0,2.219,0.405,3.03,1.215c0.81,0.81,1.215,1.928,1.215,3.354v0.842c1.534-1.836,3.176-3.187,4.926-4.051
			c1.749-0.864,3.694-1.296,5.833-1.296c2.227,0,4.136,0.443,5.736,1.329c1.598,0.886,2.916,2.225,3.953,4.019
			c1.489-1.815,3.089-3.16,4.796-4.035s3.597-1.313,5.671-1.313c2.42,0,4.505,0.476,6.254,1.426c1.75,0.951,3.06,2.312,3.921,4.083
			c0.756,1.6,1.136,4.116,1.136,7.551v17.272c0,1.859-0.422,3.252-1.266,4.18c-0.843,0.93-1.956,1.394-3.337,1.394
			c-1.34,0-2.437-0.47-3.29-1.409c-0.853-0.94-1.28-2.328-1.28-4.165v-14.874c0-1.901-0.081-3.424-0.24-4.569
			c-0.163-1.145-0.603-2.106-1.313-2.884c-0.713-0.778-1.794-1.167-3.241-1.167c-1.167,0-2.272,0.346-3.32,1.037
			c-1.05,0.691-1.864,1.62-2.447,2.787C-560.444-139.044-560.768-136.408-560.768-132.627z"/>
		<path fill="#00FF00" stroke="#00FF00" stroke-width="2" stroke-miterlimit="10" d="M-523.307-114.189l0.812-1.977l-10.889-27.416
			c-0.671-1.576-1.006-2.722-1.006-3.435c0-0.756,0.194-1.458,0.583-2.106c0.392-0.648,0.926-1.167,1.604-1.556
			c0.68-0.389,1.388-0.583,2.123-0.583c1.272,0,2.236,0.405,2.884,1.215c0.648,0.81,1.22,1.972,1.717,3.484l7.487,21.776
			l7.097-20.253c0.563-1.642,1.069-2.928,1.522-3.856c0.454-0.929,0.935-1.556,1.44-1.88c0.51-0.324,1.229-0.486,2.155-0.486
			c0.669,0,1.313,0.178,1.928,0.535c0.616,0.356,1.093,0.837,1.427,1.442c0.335,0.605,0.503,1.242,0.503,1.912
			c-0.088,0.411-0.229,0.994-0.422,1.75c-0.193,0.756-0.434,1.523-0.713,2.301l-11.535,30.202c-0.994,2.657-1.967,4.742-2.916,6.254
			c-0.951,1.513-2.212,2.673-3.776,3.483c-1.566,0.81-3.678,1.216-6.335,1.216c-2.592,0-4.537-0.281-5.833-0.843
			c-1.296-0.563-1.944-1.588-1.944-3.078c0-1.017,0.311-1.799,0.924-2.35c0.616-0.551,1.528-0.826,2.738-0.826
			c0.475,0,0.94,0.065,1.396,0.194c0.562,0.129,1.048,0.194,1.458,0.194c1.015,0,1.813-0.152,2.396-0.454
			c0.583-0.303,1.107-0.826,1.571-1.572C-524.447-111.645-523.912-112.742-523.307-114.189z"/>
	</g>
	<g>
		<path fill="#00FF00" stroke="#00FF00" stroke-width="2" stroke-miterlimit="10" d="M-626.536-62.112v11.764
			c0,1.859-0.421,3.251-1.264,4.18c-0.845,0.931-1.956,1.394-3.34,1.394c-1.339,0-2.425-0.463-3.256-1.394
			c-0.832-0.929-1.248-2.32-1.248-4.18v-14.097c0-2.224-0.074-3.953-0.227-5.185s-0.563-2.24-1.231-3.031
			c-0.669-0.787-1.729-1.183-3.176-1.183c-2.895,0-4.801,0.994-5.72,2.982c-0.918,1.989-1.377,4.84-1.377,8.556v11.957
			c0,1.838-0.416,3.225-1.248,4.164s-1.928,1.409-3.289,1.409c-1.34,0-2.438-0.47-3.289-1.409c-0.854-0.939-1.281-2.326-1.281-4.164
			v-25.308c0-1.664,0.384-2.929,1.151-3.793c0.766-0.862,1.776-1.295,3.03-1.295c1.209,0,2.219,0.403,3.028,1.214
			c0.812,0.81,1.217,1.929,1.217,3.354v0.843c1.532-1.835,3.176-3.187,4.926-4.05c1.75-0.864,3.692-1.297,5.833-1.297
			c2.224,0,4.136,0.443,5.735,1.328c1.599,0.887,2.916,2.226,3.952,4.019c1.49-1.815,3.091-3.158,4.795-4.034
			c1.707-0.876,3.6-1.313,5.673-1.313c2.42,0,4.505,0.477,6.254,1.427c1.75,0.95,3.057,2.312,3.921,4.082
			c0.756,1.601,1.135,4.115,1.135,7.551v17.272c0,1.859-0.421,3.251-1.264,4.18c-0.844,0.931-1.956,1.394-3.337,1.394
			c-1.341,0-2.438-0.47-3.29-1.409c-0.854-0.939-1.278-2.326-1.278-4.164v-14.874c0-1.9-0.081-3.424-0.243-4.569
			c-0.162-1.146-0.6-2.107-1.313-2.884c-0.713-0.777-1.794-1.168-3.24-1.168c-1.167,0-2.274,0.347-3.322,1.038
			s-1.862,1.62-2.447,2.787C-626.212-68.528-626.536-65.891-626.536-62.112z"/>
		<path fill="#00FF00" stroke="#00FF00" stroke-width="2" stroke-miterlimit="10" d="M-564.123-62.759
			c0,2.636-0.411,5.065-1.231,7.291c-0.818,2.226-2.009,4.138-3.563,5.735c-1.557,1.6-3.414,2.824-5.574,3.679
			c-2.161,0.854-4.59,1.279-7.291,1.279c-2.679,0-5.087-0.433-7.227-1.295c-2.141-0.865-3.991-2.101-5.559-3.712
			c-1.565-1.608-2.754-3.509-3.563-5.702c-0.812-2.192-1.217-4.617-1.217-7.275c0-2.678,0.41-5.132,1.231-7.357
			c0.821-2.223,1.998-4.126,3.532-5.702c1.533-1.578,3.391-2.792,5.573-3.646c2.182-0.854,4.592-1.279,7.228-1.279
			c2.679,0,5.107,0.433,7.291,1.295c2.182,0.864,4.051,2.096,5.606,3.693c1.556,1.601,2.737,3.501,3.549,5.705
			C-564.527-67.847-564.123-65.417-564.123-62.759z M-573.002-62.759c0-3.608-0.793-6.416-2.381-8.426
			c-1.59-2.009-3.723-3.014-6.4-3.014c-1.729,0-3.251,0.447-4.569,1.346c-1.316,0.896-2.333,2.219-3.045,3.968
			c-0.713,1.752-1.068,3.793-1.068,6.126c0,2.311,0.352,4.332,1.054,6.06c0.701,1.729,1.707,3.051,3.014,3.971
			c1.309,0.917,2.846,1.376,4.618,1.376c2.679,0,4.813-1.01,6.4-3.028C-573.795-56.403-573.002-59.195-573.002-62.759z"/>
		<path fill="#00FF00" stroke="#00FF00" stroke-width="2" stroke-miterlimit="10" d="M-551.775-75.235l7.162,20.092l7.712-20.968
			c0.604-1.686,1.2-2.879,1.782-3.582c0.584-0.699,1.47-1.051,2.658-1.051c1.123,0,2.078,0.377,2.865,1.133
			c0.788,0.757,1.185,1.633,1.185,2.625c0,0.388-0.07,0.843-0.21,1.36c-0.143,0.521-0.303,1.005-0.486,1.46
			c-0.185,0.452-0.395,0.972-0.632,1.554l-8.491,21.065c-0.238,0.604-0.545,1.372-0.923,2.301c-0.378,0.928-0.8,1.723-1.264,2.381
			c-0.464,0.658-1.037,1.172-1.719,1.539c-0.681,0.368-1.507,0.551-2.479,0.551c-1.253,0-2.252-0.285-2.997-0.858
			c-0.746-0.573-1.297-1.198-1.653-1.879c-0.354-0.681-0.957-2.025-1.799-4.034l-8.426-20.837c-0.194-0.519-0.396-1.038-0.599-1.557
			c-0.206-0.518-0.38-1.047-0.521-1.587s-0.211-1.005-0.211-1.394c0-0.605,0.184-1.205,0.551-1.8
			c0.368-0.593,0.875-1.08,1.523-1.457c0.646-0.378,1.35-0.566,2.105-0.566c1.471,0,2.479,0.419,3.03,1.262
			C-553.055-78.639-552.445-77.223-551.775-75.235z"/>
		<path fill="#00FF00" stroke="#00FF00" stroke-width="2" stroke-miterlimit="10" d="M-517.588-84.861
			c-1.231,0-2.284-0.378-3.16-1.133c-0.875-0.758-1.313-1.826-1.313-3.209c0-1.253,0.449-2.285,1.348-3.095
			c0.896-0.81,1.938-1.216,3.126-1.216c1.146,0,2.161,0.369,3.046,1.102c0.886,0.735,1.329,1.805,1.329,3.209
			c0,1.361-0.435,2.426-1.296,3.191C-515.374-85.243-516.399-84.861-517.588-84.861z M-513.212-75.722v25.567
			c0,1.773-0.421,3.112-1.266,4.021c-0.842,0.909-1.911,1.361-3.208,1.361c-1.296,0-2.35-0.463-3.157-1.394
			c-0.812-0.929-1.218-2.257-1.218-3.986v-25.309c0-1.749,0.406-3.065,1.218-3.952c0.81-0.887,1.861-1.328,3.157-1.328
			c1.297,0,2.366,0.441,3.208,1.328C-513.634-78.529-513.212-77.298-513.212-75.722z"/>
		<path fill="#00FF00" stroke="#00FF00" stroke-width="2" stroke-miterlimit="10" d="M-479.382-60.588h-17.306
			c0.021,2.01,0.428,3.781,1.215,5.315c0.788,1.534,1.838,2.688,3.145,3.466c1.307,0.779,2.749,1.168,4.326,1.168
			c1.059,0,2.024-0.126,2.898-0.374c0.876-0.248,1.725-0.636,2.544-1.165c0.821-0.529,1.577-1.098,2.271-1.703
			c0.689-0.604,1.588-1.425,2.688-2.463c0.455-0.388,1.104-0.581,1.945-0.581c0.908,0,1.642,0.248,2.204,0.744
			c0.562,0.498,0.843,1.198,0.843,2.106c0,0.799-0.313,1.734-0.938,2.803c-0.628,1.069-1.573,2.097-2.835,3.079
			c-1.267,0.983-2.854,1.798-4.766,2.445c-1.912,0.649-4.109,0.973-6.594,0.973c-5.683,0-10.101-1.62-13.254-4.859
			c-3.154-3.242-4.731-7.638-4.731-13.191c0-2.611,0.39-5.037,1.167-7.273c0.778-2.236,1.912-4.152,3.403-5.752
			c1.49-1.599,3.327-2.825,5.509-3.679c2.184-0.852,4.604-1.28,7.26-1.28c3.455,0,6.422,0.729,8.896,2.188
			c2.474,1.458,4.326,3.343,5.557,5.654c1.231,2.311,1.849,4.666,1.849,7.064c0,2.226-0.639,3.668-1.912,4.326
			C-475.277-60.917-477.069-60.588-479.382-60.588z M-496.686-65.611h16.041c-0.216-3.024-1.032-5.287-2.445-6.79
			c-1.415-1.502-3.278-2.252-5.592-2.252c-2.204,0-4.013,0.762-5.428,2.284C-495.524-70.845-496.384-68.593-496.686-65.611z"/>
		<path fill="#00FF00" stroke="#00FF00" stroke-width="2" stroke-miterlimit="10" d="M-436.151-56.344
			c0,2.443-0.595,4.532-1.782,6.271c-1.188,1.741-2.942,3.058-5.267,3.955c-2.322,0.896-5.146,1.344-8.474,1.344
			c-3.178,0-5.897-0.485-8.166-1.457c-2.271-0.973-3.943-2.188-5.023-3.646c-1.081-1.457-1.621-2.921-1.621-4.392
			c0-0.972,0.346-1.802,1.037-2.495c0.691-0.689,1.566-1.036,2.625-1.036c0.928,0,1.642,0.226,2.139,0.681
			c0.497,0.454,0.974,1.091,1.427,1.911c0.906,1.578,1.991,2.755,3.257,3.531c1.264,0.779,2.984,1.168,5.168,1.168
			c1.771,0,3.224-0.393,4.357-1.183c1.136-0.788,1.701-1.69,1.701-2.706c0-1.555-0.589-2.689-1.766-3.402
			c-1.181-0.713-3.117-1.394-5.817-2.041c-3.046-0.758-5.523-1.55-7.438-2.382c-1.912-0.832-3.44-1.929-4.585-3.29
			c-1.146-1.36-1.719-3.035-1.719-5.023c0-1.771,0.529-3.444,1.59-5.022c1.058-1.575,2.617-2.835,4.683-3.774
			c2.062-0.939,4.552-1.409,7.469-1.409c2.289,0,4.35,0.237,6.173,0.711c1.826,0.477,3.351,1.113,4.569,1.912
			c1.221,0.801,2.15,1.686,2.788,2.657c0.637,0.973,0.956,1.923,0.956,2.852c0,1.016-0.34,1.848-1.022,2.495
			c-0.68,0.65-1.646,0.973-2.897,0.973c-0.907,0-1.682-0.259-2.317-0.777c-0.638-0.518-1.366-1.297-2.188-2.333
			c-0.669-0.864-1.458-1.556-2.366-2.074c-0.907-0.518-2.139-0.776-3.694-0.776c-1.599,0-2.928,0.34-3.984,1.021
			c-1.061,0.681-1.589,1.527-1.589,2.544c0,0.928,0.389,1.689,1.167,2.284c0.777,0.593,1.824,1.085,3.144,1.473
			c1.318,0.391,3.133,0.865,5.444,1.427c2.742,0.67,4.984,1.471,6.725,2.399c1.738,0.928,3.056,2.023,3.953,3.288
			C-436.6-59.406-436.151-57.963-436.151-56.344z"/>
	</g>
</g>
<g>
	
		<image overflow="visible" opacity="0.2" width="81" height="37" xlink:href="FF18CE21.png"  transform="matrix(1 0 0 1 -2.2341 -3.6763)">
	</image>
	<g>
		<g>
			<g>
				<path fill="#FF0004" d="M11.919,15.749v3.678c0,0.581-0.127,1.017-0.38,1.308c-0.255,0.289-0.592,0.435-1.009,0.435
					c-0.405,0-0.734-0.146-0.985-0.435c-0.25-0.291-0.377-0.727-0.377-1.308V15.02c0-0.696-0.022-1.238-0.067-1.624
					c-0.046-0.384-0.171-0.699-0.374-0.945c-0.202-0.247-0.523-0.371-0.959-0.371c-0.875,0-1.452,0.311-1.729,0.932
					c-0.277,0.623-0.417,1.514-0.417,2.674v3.739c0,0.572-0.125,1.006-0.377,1.303c-0.251,0.293-0.583,0.44-0.996,0.44
					c-0.404,0-0.735-0.147-0.995-0.44C2.997,20.433,2.868,20,2.868,19.425v-7.913c0-0.52,0.116-0.916,0.349-1.185
					c0.232-0.271,0.537-0.406,0.916-0.406c0.366,0,0.67,0.127,0.917,0.38c0.244,0.254,0.367,0.603,0.367,1.049v0.264
					c0.463-0.574,0.96-0.998,1.489-1.266c0.529-0.27,1.117-0.406,1.764-0.406c0.673,0,1.25,0.138,1.734,0.415
					c0.483,0.276,0.881,0.696,1.195,1.257c0.451-0.568,0.934-0.988,1.45-1.261c0.516-0.272,1.088-0.411,1.715-0.411
					c0.731,0,1.36,0.149,1.891,0.446c0.529,0.298,0.923,0.723,1.185,1.276c0.229,0.501,0.343,1.287,0.343,2.361v5.4
					c0,0.581-0.128,1.017-0.383,1.309c-0.255,0.289-0.59,0.435-1.009,0.435c-0.405,0-0.737-0.147-0.995-0.44
					c-0.258-0.295-0.388-0.729-0.388-1.303v-4.65c0-0.593-0.024-1.07-0.074-1.428c-0.049-0.359-0.181-0.66-0.396-0.903
					c-0.216-0.241-0.543-0.363-0.98-0.363c-0.353,0-0.687,0.107-1.003,0.323c-0.317,0.216-0.564,0.507-0.74,0.872
					C12.018,13.741,11.919,14.567,11.919,15.749z"/>
				<path fill="#FF0004" d="M23.244,21.514l0.246-0.618l-3.292-8.573c-0.203-0.493-0.304-0.851-0.304-1.074
					c0-0.236,0.06-0.456,0.177-0.659c0.118-0.203,0.279-0.365,0.484-0.487c0.206-0.122,0.419-0.183,0.642-0.183
					c0.386,0,0.675,0.127,0.872,0.38c0.195,0.254,0.37,0.616,0.52,1.09l2.263,6.808l2.146-6.333
					c0.169-0.512,0.323-0.914,0.459-1.206c0.138-0.291,0.284-0.486,0.437-0.588c0.153-0.102,0.371-0.151,0.651-0.151
					c0.202,0,0.397,0.055,0.583,0.168c0.186,0.111,0.329,0.261,0.431,0.45c0.101,0.19,0.152,0.39,0.152,0.599
					c-0.026,0.127-0.068,0.31-0.127,0.548c-0.06,0.235-0.132,0.475-0.217,0.718l-3.488,9.442c-0.299,0.832-0.594,1.482-0.881,1.956
					c-0.287,0.475-0.667,0.838-1.141,1.09c-0.472,0.252-1.111,0.379-1.915,0.379c-0.784,0-1.372-0.088-1.764-0.264
					c-0.392-0.176-0.587-0.495-0.587-0.961c0-0.317,0.094-0.563,0.28-0.735c0.185-0.172,0.461-0.259,0.828-0.259
					c0.143,0,0.284,0.021,0.42,0.061c0.17,0.042,0.316,0.062,0.441,0.062c0.307,0,0.549-0.05,0.725-0.143
					c0.176-0.094,0.333-0.256,0.475-0.492C22.9,22.309,23.062,21.965,23.244,21.514z"/>
				<path fill="#FF0004" d="M31.798,10.165h0.294V8.504c0-0.447,0.012-0.796,0.034-1.049c0.023-0.252,0.087-0.472,0.191-0.655
					c0.105-0.188,0.256-0.342,0.452-0.46c0.195-0.118,0.414-0.177,0.655-0.177c0.34,0,0.648,0.131,0.922,0.394
					c0.182,0.175,0.298,0.389,0.346,0.644c0.05,0.252,0.074,0.612,0.074,1.079v1.886h0.979c0.378,0,0.668,0.092,0.867,0.278
					c0.199,0.184,0.299,0.424,0.299,0.714c0,0.371-0.142,0.631-0.427,0.78c-0.283,0.148-0.69,0.221-1.22,0.221h-0.499v5.088
					c0,0.431,0.016,0.764,0.043,0.998c0.029,0.232,0.109,0.421,0.236,0.568c0.128,0.144,0.335,0.216,0.622,0.216
					c0.158,0,0.371-0.027,0.637-0.085c0.268-0.059,0.477-0.087,0.627-0.087c0.217,0,0.41,0.089,0.583,0.268
					c0.174,0.178,0.26,0.4,0.26,0.664c0,0.446-0.234,0.786-0.706,1.022c-0.47,0.236-1.145,0.354-2.027,0.354
					c-0.836,0-1.469-0.146-1.9-0.435c-0.432-0.291-0.714-0.691-0.847-1.206c-0.134-0.513-0.201-1.199-0.201-2.058v-5.309h-0.353
					c-0.385,0-0.68-0.094-0.881-0.283c-0.202-0.189-0.305-0.43-0.305-0.719c0-0.291,0.106-0.53,0.318-0.714
					C31.084,10.259,31.393,10.165,31.798,10.165z"/>
				<path fill="#FF0004" d="M40.645,11.644l2.164,6.283l2.333-6.557c0.182-0.526,0.362-0.9,0.538-1.121
					c0.177-0.219,0.444-0.329,0.804-0.329c0.339,0,0.628,0.118,0.867,0.354c0.238,0.236,0.356,0.511,0.356,0.822
					c0,0.12-0.019,0.262-0.062,0.424c-0.044,0.162-0.092,0.314-0.147,0.455c-0.056,0.142-0.119,0.304-0.191,0.487L44.74,19.05
					c-0.072,0.188-0.165,0.428-0.279,0.719s-0.243,0.541-0.382,0.746c-0.14,0.205-0.313,0.365-0.521,0.48
					c-0.204,0.115-0.455,0.173-0.749,0.173c-0.378,0-0.681-0.09-0.906-0.27c-0.226-0.178-0.393-0.373-0.498-0.587
					c-0.108-0.213-0.291-0.633-0.545-1.262l-2.547-6.514c-0.059-0.163-0.118-0.325-0.18-0.487c-0.063-0.161-0.115-0.327-0.158-0.495
					c-0.042-0.169-0.063-0.314-0.063-0.437c0-0.189,0.056-0.376,0.167-0.562c0.11-0.187,0.264-0.337,0.46-0.456
					c0.195-0.118,0.408-0.178,0.636-0.178c0.444,0,0.749,0.133,0.917,0.396C40.257,10.581,40.442,11.024,40.645,11.644z"/>
			</g>
			<g>
				<path fill="#FF0004" d="M52.81,25.441c-0.053,0-0.106,0-0.16,0c-0.182-0.038-0.254-0.159-0.297-0.31
					c-0.064-0.227-0.05-0.455-0.043-0.686c0.009-0.189-0.065-0.288-0.273-0.356c-2.18-0.705-3.486-2.099-3.895-4.175
					c-0.057-0.288-0.082-0.582-0.08-0.876c0.003-1.806-0.008-3.609,0.007-5.412c0.007-0.875,0.181-1.725,0.644-2.503
					c0.95-1.595,2.419-2.518,4.386-2.783c0.125-0.018,0.251-0.013,0.377-0.013c1.037,0,2.077-0.003,3.114,0.002
					c0.211,0.001,0.324-0.059,0.381-0.256c0.136-0.46,0.492-0.765,0.919-1.01c0.251-0.144,0.26-0.153,0.104-0.376
					c-1.869-1.164-6.13-3.458-6.327-3.319c-0.51-0.1-0.79-0.567-0.634-1.022c0.097-0.28,0.305-0.451,0.631-0.491
					c0.125,0,0.25,0,0.373,0c0.554,0.122,0.791,0.47,0.657,0.981c-0.04,0.151-0.084,0.147,0.004,0.269
					c2.123,1.126,6.051,3.272,6.167,3.43c0.073,0.104,0.167,0.15,0.313,0.14c0.341-0.026,0.681-0.026,1.021,0
					c0.158,0.011,0.25-0.046,0.329-0.161c0.588-0.838,1.188-1.669,1.78-2.506c0.094-0.133,0.066-0.258,0.032-0.398
					c-0.126-0.496,0.264-0.98,0.807-1.011c0.502-0.027,0.885,0.249,0.957,0.682c0.072,0.464-0.207,0.854-0.714,0.942
					c-0.241,0.042-0.38,0.149-0.499,0.325c-0.479,0.708-0.997,1.393-1.479,2.1c-0.185,0.269-0.183,0.264,0.099,0.428
					c0.433,0.253,0.787,0.57,0.913,1.045c0.052,0.192,0.189,0.207,0.366,0.207c0.982-0.002,1.967-0.004,2.953-0.001
					c1.357,0.002,2.542,0.437,3.563,1.232c1.074,0.837,1.724,1.906,1.928,3.189c0.047,0.305,0.083,0.613,0.083,0.924
					c-0.004,1.771-0.002,3.542-0.004,5.313c0,0.749-0.132,1.478-0.459,2.172c-0.678,1.43-1.837,2.386-3.435,2.914
					c-0.344,0.11-0.346,0.101-0.35,0.444c0,0.205,0.013,0.409-0.044,0.609c-0.045,0.153-0.115,0.274-0.296,0.312
					c-0.055,0-0.107,0-0.161,0c-0.366-0.107-0.597-0.372-0.77-0.649c-0.229-0.372-0.536-0.463-0.984-0.461
					c-3.47,0.018-6.938,0.015-10.406,0.004c-0.34-0.002-0.563,0.093-0.745,0.359C53.448,25,53.219,25.31,52.81,25.441z"/>
				<path fill="#FEFEFE" d="M59.099,21.881c-2.401,0-4.805,0-7.209,0c-1.024,0-1.53-0.433-1.53-1.307
					c0-2.814,0.018-5.631-0.012-8.445c-0.008-0.75,0.57-1.316,1.546-1.313c4.817,0.022,9.634,0.021,14.451,0
					c0.893-0.004,1.549,0.489,1.539,1.316c-0.026,2.815-0.026,5.63,0,8.444c0.01,0.834-0.652,1.323-1.543,1.315
					C63.927,21.865,61.513,21.881,59.099,21.881z"/>
				<g>
					<path fill="#FEFEFE" d="M70.469,17.512c0.003,0.441-0.383,0.799-0.863,0.797c-0.475-0.002-0.856-0.35-0.86-0.781
						c-0.004-0.436,0.374-0.789,0.847-0.795C70.078,16.727,70.466,17.072,70.469,17.512z"/>
					<path fill="#FEFEFE" d="M70.47,14.455c0.002,0.435-0.373,0.785-0.851,0.789c-0.484,0.008-0.872-0.341-0.874-0.782
						c-0.002-0.442,0.388-0.796,0.867-0.79C70.09,13.674,70.469,14.02,70.47,14.455z"/>
				</g>
			</g>
		</g>
	</g>
</g>
<g>
	
		<image overflow="visible" opacity="0.2" width="60" height="34" xlink:href="FF18CE27.png"  transform="matrix(1 0 0 1 -3.2341 0.3237)">
	</image>
	<g>
		<g>
			<path fill="#00FF00" stroke="#FFFFFF" stroke-width="1.9418" stroke-miterlimit="10" d="M11.919,15.749v3.678
				c0,0.581-0.127,1.017-0.38,1.308c-0.255,0.289-0.592,0.435-1.009,0.435c-0.405,0-0.734-0.146-0.985-0.435
				c-0.25-0.291-0.377-0.727-0.377-1.308V15.02c0-0.696-0.022-1.238-0.067-1.624c-0.046-0.384-0.171-0.699-0.374-0.945
				c-0.202-0.247-0.523-0.371-0.959-0.371c-0.875,0-1.452,0.311-1.729,0.932c-0.277,0.623-0.417,1.514-0.417,2.674v3.739
				c0,0.572-0.125,1.006-0.377,1.303c-0.251,0.293-0.583,0.44-0.996,0.44c-0.404,0-0.735-0.147-0.995-0.44
				C2.997,20.433,2.868,20,2.868,19.425v-7.913c0-0.52,0.116-0.916,0.349-1.185c0.232-0.271,0.537-0.406,0.916-0.406
				c0.366,0,0.67,0.127,0.917,0.38c0.244,0.254,0.367,0.603,0.367,1.049v0.264c0.463-0.574,0.96-0.998,1.489-1.266
				c0.529-0.27,1.117-0.406,1.764-0.406c0.673,0,1.25,0.138,1.734,0.415c0.483,0.276,0.881,0.696,1.195,1.257
				c0.451-0.568,0.934-0.988,1.45-1.261c0.516-0.272,1.088-0.411,1.715-0.411c0.731,0,1.36,0.149,1.891,0.446
				c0.529,0.298,0.923,0.723,1.185,1.276c0.229,0.501,0.343,1.287,0.343,2.361v5.4c0,0.581-0.128,1.017-0.383,1.309
				c-0.255,0.289-0.59,0.435-1.009,0.435c-0.405,0-0.737-0.147-0.995-0.44c-0.258-0.295-0.388-0.729-0.388-1.303v-4.65
				c0-0.593-0.024-1.07-0.074-1.428c-0.049-0.359-0.181-0.66-0.396-0.903c-0.216-0.241-0.543-0.363-0.98-0.363
				c-0.353,0-0.687,0.107-1.003,0.323c-0.317,0.216-0.564,0.507-0.74,0.872C12.018,13.741,11.919,14.567,11.919,15.749z"/>
			<path fill="#00FF00" stroke="#FFFFFF" stroke-width="1.9418" stroke-miterlimit="10" d="M23.244,21.514l0.246-0.618l-3.292-8.573
				c-0.203-0.493-0.304-0.851-0.304-1.074c0-0.236,0.06-0.456,0.177-0.659c0.118-0.203,0.279-0.365,0.484-0.487
				c0.206-0.122,0.419-0.183,0.642-0.183c0.386,0,0.675,0.127,0.872,0.38c0.195,0.254,0.37,0.616,0.52,1.09l2.263,6.808l2.146-6.333
				c0.169-0.512,0.323-0.914,0.459-1.206c0.138-0.291,0.284-0.486,0.437-0.588c0.153-0.102,0.371-0.151,0.651-0.151
				c0.202,0,0.397,0.055,0.583,0.168c0.186,0.111,0.329,0.261,0.431,0.45c0.101,0.19,0.152,0.39,0.152,0.599
				c-0.026,0.127-0.068,0.31-0.127,0.548c-0.06,0.235-0.132,0.475-0.217,0.718l-3.488,9.442c-0.299,0.832-0.594,1.482-0.881,1.956
				c-0.287,0.475-0.667,0.838-1.141,1.09c-0.472,0.252-1.111,0.379-1.915,0.379c-0.784,0-1.372-0.088-1.764-0.264
				c-0.392-0.176-0.587-0.495-0.587-0.961c0-0.317,0.094-0.563,0.28-0.735c0.185-0.172,0.461-0.259,0.828-0.259
				c0.143,0,0.284,0.021,0.42,0.061c0.17,0.042,0.316,0.062,0.441,0.062c0.307,0,0.549-0.05,0.725-0.143
				c0.176-0.094,0.333-0.256,0.475-0.492C22.9,22.309,23.062,21.965,23.244,21.514z"/>
			<path fill="#00FF00" stroke="#FFFFFF" stroke-width="1.9418" stroke-miterlimit="10" d="M31.798,10.165h0.294V8.504
				c0-0.447,0.012-0.796,0.034-1.049c0.023-0.252,0.087-0.472,0.191-0.655c0.105-0.188,0.256-0.342,0.452-0.46
				c0.195-0.118,0.414-0.177,0.655-0.177c0.34,0,0.648,0.131,0.922,0.394c0.182,0.175,0.298,0.389,0.346,0.644
				c0.05,0.252,0.074,0.612,0.074,1.079v1.886h0.979c0.378,0,0.668,0.092,0.867,0.278c0.199,0.184,0.299,0.424,0.299,0.714
				c0,0.371-0.142,0.631-0.427,0.78c-0.283,0.148-0.69,0.221-1.22,0.221h-0.499v5.088c0,0.431,0.016,0.764,0.043,0.998
				c0.029,0.232,0.109,0.421,0.236,0.568c0.128,0.144,0.335,0.216,0.622,0.216c0.158,0,0.371-0.027,0.637-0.085
				c0.268-0.059,0.477-0.087,0.627-0.087c0.217,0,0.41,0.089,0.583,0.268c0.174,0.178,0.26,0.4,0.26,0.664
				c0,0.446-0.234,0.786-0.706,1.022c-0.47,0.236-1.145,0.354-2.027,0.354c-0.836,0-1.469-0.146-1.9-0.435
				c-0.432-0.291-0.714-0.691-0.847-1.206c-0.134-0.513-0.201-1.199-0.201-2.058v-5.309h-0.353c-0.385,0-0.68-0.094-0.881-0.283
				c-0.202-0.189-0.305-0.43-0.305-0.719c0-0.291,0.106-0.53,0.318-0.714C31.084,10.259,31.393,10.165,31.798,10.165z"/>
			<path fill="#00FF00" stroke="#FFFFFF" stroke-width="1.9418" stroke-miterlimit="10" d="M40.645,11.644l2.164,6.283l2.333-6.557
				c0.182-0.526,0.362-0.9,0.538-1.121c0.177-0.219,0.444-0.329,0.804-0.329c0.339,0,0.628,0.118,0.867,0.354
				c0.238,0.236,0.356,0.511,0.356,0.822c0,0.12-0.019,0.262-0.062,0.424c-0.044,0.162-0.092,0.314-0.147,0.455
				c-0.056,0.142-0.119,0.304-0.191,0.487L44.74,19.05c-0.072,0.188-0.165,0.428-0.279,0.719s-0.243,0.541-0.382,0.746
				c-0.14,0.205-0.313,0.365-0.521,0.48c-0.204,0.115-0.455,0.173-0.749,0.173c-0.378,0-0.681-0.09-0.906-0.27
				c-0.226-0.178-0.393-0.373-0.498-0.587c-0.108-0.213-0.291-0.633-0.545-1.262l-2.547-6.514c-0.059-0.163-0.118-0.325-0.18-0.487
				c-0.063-0.161-0.115-0.327-0.158-0.495c-0.042-0.169-0.063-0.314-0.063-0.437c0-0.189,0.056-0.376,0.167-0.562
				c0.11-0.187,0.264-0.337,0.46-0.456c0.195-0.118,0.408-0.178,0.636-0.178c0.444,0,0.749,0.133,0.917,0.396
				C40.257,10.581,40.442,11.024,40.645,11.644z"/>
		</g>
	</g>
</g>
<g>
	<path fill="#00FF00" stroke="#FFFFFF" stroke-width="1.9418" stroke-miterlimit="10" d="M52.81,25.441c-0.053,0-0.106,0-0.16,0
		c-0.182-0.038-0.254-0.159-0.297-0.31c-0.064-0.227-0.05-0.455-0.043-0.686c0.009-0.189-0.065-0.288-0.273-0.356
		c-2.18-0.705-3.486-2.099-3.895-4.175c-0.057-0.288-0.082-0.582-0.08-0.876c0.003-1.806-0.008-3.609,0.007-5.412
		c0.007-0.875,0.181-1.725,0.644-2.503c0.95-1.595,2.419-2.518,4.386-2.783c0.125-0.018,0.251-0.013,0.377-0.013
		c1.037,0,2.077-0.003,3.114,0.002c0.211,0.001,0.324-0.059,0.381-0.256c0.136-0.46,0.492-0.765,0.919-1.01
		c0.251-0.144,0.26-0.153,0.104-0.376c-1.869-1.164-6.13-3.458-6.327-3.319c-0.51-0.1-0.79-0.567-0.634-1.022
		c0.097-0.28,0.305-0.451,0.631-0.491c0.125,0,0.25,0,0.373,0c0.554,0.122,0.791,0.47,0.657,0.981
		c-0.04,0.151-0.084,0.147,0.004,0.269c2.123,1.126,6.051,3.272,6.167,3.43c0.073,0.104,0.167,0.15,0.313,0.14
		c0.341-0.026,0.681-0.026,1.021,0c0.158,0.011,0.25-0.046,0.329-0.161c0.588-0.838,1.188-1.669,1.78-2.506
		c0.094-0.133,0.066-0.258,0.032-0.398c-0.126-0.496,0.264-0.98,0.807-1.011c0.502-0.027,0.885,0.249,0.957,0.682
		c0.072,0.464-0.207,0.854-0.714,0.942c-0.241,0.042-0.38,0.149-0.499,0.325c-0.479,0.708-0.997,1.393-1.479,2.1
		c-0.185,0.269-0.183,0.264,0.099,0.428c0.433,0.253,0.787,0.57,0.913,1.045c0.052,0.192,0.189,0.207,0.366,0.207
		c0.982-0.002,1.967-0.004,2.953-0.001c1.357,0.002,2.542,0.437,3.563,1.232c1.074,0.837,1.724,1.906,1.928,3.189
		c0.047,0.305,0.083,0.613,0.083,0.924c-0.004,1.771-0.002,3.542-0.004,5.313c0,0.749-0.132,1.478-0.459,2.172
		c-0.678,1.43-1.837,2.386-3.435,2.914c-0.344,0.11-0.346,0.101-0.35,0.444c0,0.205,0.013,0.409-0.044,0.609
		c-0.045,0.153-0.115,0.274-0.296,0.312c-0.055,0-0.107,0-0.161,0c-0.366-0.107-0.597-0.372-0.77-0.649
		c-0.229-0.372-0.536-0.463-0.984-0.461c-3.47,0.018-6.938,0.015-10.406,0.004c-0.34-0.002-0.563,0.093-0.745,0.359
		C53.448,25,53.219,25.31,52.81,25.441z"/>
	<path fill="#00FF00" stroke="#FFFFFF" stroke-width="1.9418" stroke-miterlimit="10" d="M59.099,21.881c-2.401,0-4.805,0-7.209,0
		c-1.024,0-1.53-0.433-1.53-1.307c0-2.814,0.018-5.631-0.012-8.445c-0.008-0.75,0.57-1.316,1.546-1.313
		c4.817,0.022,9.634,0.021,14.451,0c0.893-0.004,1.549,0.489,1.539,1.316c-0.026,2.815-0.026,5.63,0,8.444
		c0.01,0.834-0.652,1.323-1.543,1.315C63.927,21.865,61.513,21.881,59.099,21.881z"/>
	<g>
		<path fill="#00FF00" stroke="#FFFFFF" stroke-width="1.9418" stroke-miterlimit="10" d="M70.469,17.512
			c0.003,0.441-0.383,0.799-0.863,0.797c-0.475-0.002-0.856-0.35-0.86-0.781c-0.004-0.436,0.374-0.789,0.847-0.795
			C70.078,16.727,70.466,17.072,70.469,17.512z"/>
		<path fill="#00FF00" stroke="#FFFFFF" stroke-width="1.9418" stroke-miterlimit="10" d="M70.47,14.455
			c0.002,0.435-0.373,0.785-0.851,0.789c-0.484,0.008-0.872-0.341-0.874-0.782c-0.002-0.442,0.388-0.796,0.867-0.79
			C70.09,13.674,70.469,14.02,70.47,14.455z"/>
	</g>
</g>
<g>
	<g>
		<path fill="#00FF00" d="M11.919,15.749v3.678c0,0.581-0.127,1.017-0.38,1.308c-0.255,0.289-0.592,0.435-1.009,0.435
			c-0.405,0-0.734-0.146-0.985-0.435c-0.25-0.291-0.377-0.727-0.377-1.308V15.02c0-0.696-0.022-1.238-0.067-1.624
			c-0.046-0.384-0.171-0.699-0.374-0.945c-0.202-0.247-0.523-0.371-0.959-0.371c-0.875,0-1.452,0.311-1.729,0.932
			c-0.277,0.623-0.417,1.514-0.417,2.674v3.739c0,0.572-0.125,1.006-0.377,1.303c-0.251,0.293-0.583,0.44-0.996,0.44
			c-0.404,0-0.735-0.147-0.995-0.44C2.997,20.433,2.868,20,2.868,19.425v-7.913c0-0.52,0.116-0.916,0.349-1.185
			c0.232-0.271,0.537-0.406,0.916-0.406c0.366,0,0.67,0.127,0.917,0.38c0.244,0.254,0.367,0.603,0.367,1.049v0.264
			c0.463-0.574,0.96-0.998,1.489-1.266c0.529-0.27,1.117-0.406,1.764-0.406c0.673,0,1.25,0.138,1.734,0.415
			c0.483,0.276,0.881,0.696,1.195,1.257c0.451-0.568,0.934-0.988,1.45-1.261c0.516-0.272,1.088-0.411,1.715-0.411
			c0.731,0,1.36,0.149,1.891,0.446c0.529,0.298,0.923,0.723,1.185,1.276c0.229,0.501,0.343,1.287,0.343,2.361v5.4
			c0,0.581-0.128,1.017-0.383,1.309c-0.255,0.289-0.59,0.435-1.009,0.435c-0.405,0-0.737-0.147-0.995-0.44
			c-0.258-0.295-0.388-0.729-0.388-1.303v-4.65c0-0.593-0.024-1.07-0.074-1.428c-0.049-0.359-0.181-0.66-0.396-0.903
			c-0.216-0.241-0.543-0.363-0.98-0.363c-0.353,0-0.687,0.107-1.003,0.323c-0.317,0.216-0.564,0.507-0.74,0.872
			C12.018,13.741,11.919,14.567,11.919,15.749z"/>
		<path fill="#00FF00" d="M23.244,21.514l0.246-0.618l-3.292-8.573c-0.203-0.493-0.304-0.851-0.304-1.074
			c0-0.236,0.06-0.456,0.177-0.659c0.118-0.203,0.279-0.365,0.484-0.487c0.206-0.122,0.419-0.183,0.642-0.183
			c0.386,0,0.675,0.127,0.872,0.38c0.195,0.254,0.37,0.616,0.52,1.09l2.263,6.808l2.146-6.333c0.169-0.512,0.323-0.914,0.459-1.206
			c0.138-0.291,0.284-0.486,0.437-0.588c0.153-0.102,0.371-0.151,0.651-0.151c0.202,0,0.397,0.055,0.583,0.168
			c0.186,0.111,0.329,0.261,0.431,0.45c0.101,0.19,0.152,0.39,0.152,0.599c-0.026,0.127-0.068,0.31-0.127,0.548
			c-0.06,0.235-0.132,0.475-0.217,0.718l-3.488,9.442c-0.299,0.832-0.594,1.482-0.881,1.956c-0.287,0.475-0.667,0.838-1.141,1.09
			c-0.472,0.252-1.111,0.379-1.915,0.379c-0.784,0-1.372-0.088-1.764-0.264c-0.392-0.176-0.587-0.495-0.587-0.961
			c0-0.317,0.094-0.563,0.28-0.735c0.185-0.172,0.461-0.259,0.828-0.259c0.143,0,0.284,0.021,0.42,0.061
			c0.17,0.042,0.316,0.062,0.441,0.062c0.307,0,0.549-0.05,0.725-0.143c0.176-0.094,0.333-0.256,0.475-0.492
			C22.9,22.309,23.062,21.965,23.244,21.514z"/>
		<path fill="#00FF00" d="M31.798,10.165h0.294V8.504c0-0.447,0.012-0.796,0.034-1.049c0.023-0.252,0.087-0.472,0.191-0.655
			c0.105-0.188,0.256-0.342,0.452-0.46c0.195-0.118,0.414-0.177,0.655-0.177c0.34,0,0.648,0.131,0.922,0.394
			c0.182,0.175,0.298,0.389,0.346,0.644c0.05,0.252,0.074,0.612,0.074,1.079v1.886h0.979c0.378,0,0.668,0.092,0.867,0.278
			c0.199,0.184,0.299,0.424,0.299,0.714c0,0.371-0.142,0.631-0.427,0.78c-0.283,0.148-0.69,0.221-1.22,0.221h-0.499v5.088
			c0,0.431,0.016,0.764,0.043,0.998c0.029,0.232,0.109,0.421,0.236,0.568c0.128,0.144,0.335,0.216,0.622,0.216
			c0.158,0,0.371-0.027,0.637-0.085c0.268-0.059,0.477-0.087,0.627-0.087c0.217,0,0.41,0.089,0.583,0.268
			c0.174,0.178,0.26,0.4,0.26,0.664c0,0.446-0.234,0.786-0.706,1.022c-0.47,0.236-1.145,0.354-2.027,0.354
			c-0.836,0-1.469-0.146-1.9-0.435c-0.432-0.291-0.714-0.691-0.847-1.206c-0.134-0.513-0.201-1.199-0.201-2.058v-5.309h-0.353
			c-0.385,0-0.68-0.094-0.881-0.283c-0.202-0.189-0.305-0.43-0.305-0.719c0-0.291,0.106-0.53,0.318-0.714
			C31.084,10.259,31.393,10.165,31.798,10.165z"/>
		<path fill="#00FF00" d="M40.645,11.644l2.164,6.283l2.333-6.557c0.182-0.526,0.362-0.9,0.538-1.121
			c0.177-0.219,0.444-0.329,0.804-0.329c0.339,0,0.628,0.118,0.867,0.354c0.238,0.236,0.356,0.511,0.356,0.822
			c0,0.12-0.019,0.262-0.062,0.424c-0.044,0.162-0.092,0.314-0.147,0.455c-0.056,0.142-0.119,0.304-0.191,0.487L44.74,19.05
			c-0.072,0.188-0.165,0.428-0.279,0.719s-0.243,0.541-0.382,0.746c-0.14,0.205-0.313,0.365-0.521,0.48
			c-0.204,0.115-0.455,0.173-0.749,0.173c-0.378,0-0.681-0.09-0.906-0.27c-0.226-0.178-0.393-0.373-0.498-0.587
			c-0.108-0.213-0.291-0.633-0.545-1.262l-2.547-6.514c-0.059-0.163-0.118-0.325-0.18-0.487c-0.063-0.161-0.115-0.327-0.158-0.495
			c-0.042-0.169-0.063-0.314-0.063-0.437c0-0.189,0.056-0.376,0.167-0.562c0.11-0.187,0.264-0.337,0.46-0.456
			c0.195-0.118,0.408-0.178,0.636-0.178c0.444,0,0.749,0.133,0.917,0.396C40.257,10.581,40.442,11.024,40.645,11.644z"/>
	</g>
	<g>
		<path fill="#00FF00" d="M52.81,25.441c-0.053,0-0.106,0-0.16,0c-0.182-0.038-0.254-0.159-0.297-0.31
			c-0.064-0.227-0.05-0.455-0.043-0.686c0.009-0.189-0.065-0.288-0.273-0.356c-2.18-0.705-3.486-2.099-3.895-4.175
			c-0.057-0.288-0.082-0.582-0.08-0.876c0.003-1.806-0.008-3.609,0.007-5.412c0.007-0.875,0.181-1.725,0.644-2.503
			c0.95-1.595,2.419-2.518,4.386-2.783c0.125-0.018,0.251-0.013,0.377-0.013c1.037,0,2.077-0.003,3.114,0.002
			c0.211,0.001,0.324-0.059,0.381-0.256c0.136-0.46,0.492-0.765,0.919-1.01c0.251-0.144,0.26-0.153,0.104-0.376
			c-1.869-1.164-6.13-3.458-6.327-3.319c-0.51-0.1-0.79-0.567-0.634-1.022c0.097-0.28,0.305-0.451,0.631-0.491
			c0.125,0,0.25,0,0.373,0c0.554,0.122,0.791,0.47,0.657,0.981c-0.04,0.151-0.084,0.147,0.004,0.269
			c2.123,1.126,6.051,3.272,6.167,3.43c0.073,0.104,0.167,0.15,0.313,0.14c0.341-0.026,0.681-0.026,1.021,0
			c0.158,0.011,0.25-0.046,0.329-0.161c0.588-0.838,1.188-1.669,1.78-2.506c0.094-0.133,0.066-0.258,0.032-0.398
			c-0.126-0.496,0.264-0.98,0.807-1.011c0.502-0.027,0.885,0.249,0.957,0.682c0.072,0.464-0.207,0.854-0.714,0.942
			c-0.241,0.042-0.38,0.149-0.499,0.325c-0.479,0.708-0.997,1.393-1.479,2.1c-0.185,0.269-0.183,0.264,0.099,0.428
			c0.433,0.253,0.787,0.57,0.913,1.045c0.052,0.192,0.189,0.207,0.366,0.207c0.982-0.002,1.967-0.004,2.953-0.001
			c1.357,0.002,2.542,0.437,3.563,1.232c1.074,0.837,1.724,1.906,1.928,3.189c0.047,0.305,0.083,0.613,0.083,0.924
			c-0.004,1.771-0.002,3.542-0.004,5.313c0,0.749-0.132,1.478-0.459,2.172c-0.678,1.43-1.837,2.386-3.435,2.914
			c-0.344,0.11-0.346,0.101-0.35,0.444c0,0.205,0.013,0.409-0.044,0.609c-0.045,0.153-0.115,0.274-0.296,0.312
			c-0.055,0-0.107,0-0.161,0c-0.366-0.107-0.597-0.372-0.77-0.649c-0.229-0.372-0.536-0.463-0.984-0.461
			c-3.47,0.018-6.938,0.015-10.406,0.004c-0.34-0.002-0.563,0.093-0.745,0.359C53.448,25,53.219,25.31,52.81,25.441z"/>
		<path fill="#FEFEFE" d="M59.099,21.881c-2.401,0-4.805,0-7.209,0c-1.024,0-1.53-0.433-1.53-1.307c0-2.814,0.018-5.631-0.012-8.445
			c-0.008-0.75,0.57-1.316,1.546-1.313c4.817,0.022,9.634,0.021,14.451,0c0.893-0.004,1.549,0.489,1.539,1.316
			c-0.026,2.815-0.026,5.63,0,8.444c0.01,0.834-0.652,1.323-1.543,1.315C63.927,21.865,61.513,21.881,59.099,21.881z"/>
		<g>
			<path fill="#FEFEFE" d="M70.469,17.512c0.003,0.441-0.383,0.799-0.863,0.797c-0.475-0.002-0.856-0.35-0.86-0.781
				c-0.004-0.436,0.374-0.789,0.847-0.795C70.078,16.727,70.466,17.072,70.469,17.512z"/>
			<path fill="#FEFEFE" d="M70.47,14.455c0.002,0.435-0.373,0.785-0.851,0.789c-0.484,0.008-0.872-0.341-0.874-0.782
				c-0.002-0.442,0.388-0.796,0.867-0.79C70.09,13.674,70.469,14.02,70.47,14.455z"/>
		</g>
	</g>
</g>
</svg>
